<?xml version="1.0" encoding="utf-8"?>
<!-- Generator: Adobe Illustrator 22.0.0, SVG Export Plug-In . SVG Version: 6.00 Build 0)  -->
<svg version="1.1" xmlns="http://www.w3.org/2000/svg" x="0px" y="0px"
     viewBox="0 0 512 512" style="enable-background:new 0 0 512 512;" xml:space="preserve">
<style type="text/css">
	.st0{fill:#D0D0D0;}
	.st1{fill:#313131;}
	.st2{fill:#CECECE;}
</style>
<g id="Слой_2">
	<g>
		<path class="st0" d="M133.1,38c35.7-20,77-31.5,120.9-31.5c136.7,0,247.5,110.8,247.5,247.5S390.7,501.5,254,501.5
			S6.5,390.7,6.5,254C6.5,161.2,57.6,80.3,133.1,38"/>
	</g>
	<g>
		<path class="st1" d="M126.8,134.2H85V96.1h41.8V134.2z M124.3,388.9H87.5V170.8h36.7V388.9z"/>
		<path class="st1" d="M430.3,388.9h-38.7V138.3l-75.8,170.5h-23.4l-75.2-170.5v250.6h-36.1V98.1h52.7L306.5,260l70.1-161.9h53.7
			V388.9z"/>
	</g>
</g>
<g id="Слой_1">
	<g>
		<path class="st1" d="M252.5,95.2c48.9,48.9,97.7,97.7,146.6,146.6l89.9,89.9c8.1-24.5,12.5-50.6,12.5-77.8
			C501.5,117.3,390.7,6.5,254,6.5c-27.2,0-53.3,4.4-77.8,12.5C201.6,44.4,227,69.8,252.5,95.2z"/>
	</g>
	<g>
		<path class="st1" d="M337.9,436.2C286.2,384.4,234.5,332.7,182.7,281c-48.6-48.6-97.2-97.2-145.9-145.9
			C17.5,170.4,6.5,210.9,6.5,254c0,136.7,110.8,247.5,247.5,247.5c43.1,0,83.6-11,118.9-30.4L337.9,436.2z"/>
	</g>
	<g>
		<polygon class="st2" points="87.5,185.8 87.5,388.9 124.3,388.9 124.3,222.5 		"/>
		<path class="st2" d="M362.1,204.9l29.6-66.5v96.1l38.7,38.7v-175h-53.7l-36.7,84.6C347.3,190.1,354.7,197.5,362.1,204.9z"/>
		<polygon class="st2" points="181.1,279.3 181.1,388.9 217.2,388.9 217.2,315.5 		"/>
	</g>
	<path d=""/>
</g>
</svg>
